<svg version="1.2" xmlns="http://www.w3.org/2000/svg" viewBox="0 0 78 67" width="78" height="67">
	<title>logo-da-vertical-svg-svg</title>
	<style>
		.s0 { fill: #bfa130 } 
	</style>
	<path id="Layer" fill-rule="evenodd" class="s0" d="m8.5 5.9c2.7-2.3 5.5-2.4 5.5-2.4l3.8 11.9-0.3 0.2-12.4-5.3c0 0 1.3-2.7 3.4-4.4zm7.9-2.8c1.4-1.8 5.2-3.2 11.5-2.1 3.2 0.5 6.7 1.8 7.2 3.3l-15 10.5-0.4-0.1zm6.5 12.1l13.6-9.2c0 0 3.8 3.7 4.2 7.2 0.7 5.2-3.3 6.9-3.3 6.9l-14.5-4.5zm-1.4 2.4l13.4 4.2c0 0-0.2 2.1-4.7 4.2-3.4 1.5-6 0.1-6 0.1l-2.9-8.3zm-19.9 3c-0.5-4.6 2.5-8.2 2.5-8.2l12 4.7 0.1 0.4-10.5 8.7c0 0-3.5-1-4.1-5.6zm17.4-2.8l3.1 9.8c0.3 2.3-4.4 8.4-4.4 8.4 0 0-2.8 0.4-4.3 0.2l1.4-5.1c0 0-3.6-0.2-5.3-0.8-2.1-0.6-2.8-2-2.8-2l11.9-10.4zm-13.2 33.9h-4.2v-11.3h4.2c3.7 0 5.9 2.5 5.9 5.7 0 3.1-2.2 5.6-5.9 5.6zm0-9.3h-1.7v7.4h1.7c2.1 0 3.4-1.7 3.4-3.7 0-2.1-1.3-3.7-3.4-3.7zm15.6 7.9c-1.2 1.3-2.7 1.6-3.8 1.6-3 0-4.7-1.9-4.7-4.3 0-2.4 1.9-4.4 4.5-4.4 2.3 0 4.4 1.6 4.4 4.9h-6.5c0 1.1 0.9 1.8 2.5 1.8 0.8 0 1.6-0.4 2.2-0.9zm-6.1-3.7h4.1c-0.1-1-1.2-1.4-2-1.4-0.8 0-1.8 0.3-2.1 1.4zm15.4 0.6v4.5h-2.3v-4.5c0-1.1-0.3-2-1.4-2-1 0-1.4 0.9-1.4 2v4.5h-2.3v-8.3h2.3v1.1c0.6-0.8 1.3-1.3 2.2-1.3 1.3 0 2.1 0.5 2.5 1.4 0.7-1.2 1.9-1.4 2.6-1.4 2.3 0 3 1.9 3 4v4.5h-2.4v-4.5c0-1.1-0.3-2-1.4-2-1 0-1.4 0.9-1.4 2zm15.1 3.1c-1.1 1.2-2.7 1.6-3.8 1.6-3 0-4.7-1.9-4.7-4.3 0-2.5 1.9-4.4 4.5-4.4 2.3 0 4.5 1.6 4.5 4.9h-6.6c0 1 1 1.8 2.5 1.8 0.8 0 1.7-0.4 2.3-1zm-6.2-3.6h4.1c-0.1-1.1-1.2-1.5-2-1.5-0.7 0-1.8 0.4-2.1 1.5zm8-3.3h2.4v1.2c0.7-1 1.5-1.3 2.5-1.3 2.3 0 2.9 1.8 2.9 3.9v4.6h-2.4v-4.5c0-1.2-0.4-2-1.5-2-1.1 0-1.5 0.9-1.5 2v4.5h-2.4zm12.6 0h2.3v1.9h-2.3v3.9c0 0.3 0.2 0.7 0.6 0.7 0.5 0 0.7-0.4 0.7-0.8 0-0.2-0.1-0.5-0.1-0.7h1.8c0.2 0.3 0.2 0.7 0.2 1 0 1.3-0.8 2.5-2.7 2.5-1.4 0-2.9-0.5-2.9-2.9v-3.7h-1.2v-1.9h1.4l0.4-2.1h1.8zm5.7-0.8c-0.9 0-1.5-0.6-1.5-1.4 0-0.8 0.6-1.4 1.5-1.4 0.8 0 1.5 0.6 1.5 1.4 0 0.8-0.7 1.4-1.5 1.4zm-1.3 0.8h2.4v8.4h-2.4zm10.6 0h2.4v8.3h-2.4v-1.2c-0.6 0.9-1.4 1.4-2.6 1.4-2.5 0-4-2-4-4.4 0-2.3 1.4-4.3 4-4.3 1.1 0 2 0.6 2.6 1.3zm-2.1 6.6c1.2 0 2.2-0.8 2.2-2.3 0-1.6-1-2.5-2.3-2.5-1.3 0-2 1.1-2 2.4 0 1.3 0.8 2.4 2.1 2.4zm-72.8 16.4l4.3-11.4h2.5l4.3 11.4h-2.6l-0.7-2.1h-4.4l-0.8 2.1zm4-4.1h3l-1.5-4.6zm15.8 4.2h-2.4v-1.2c-0.7 1-1.5 1.4-2.5 1.4-2.3 0-2.9-1.9-2.9-4v-4.6h2.3v4.5c0 1.2 0.5 2.1 1.6 2.1 1.1 0 1.5-0.9 1.5-2.1v-4.5h2.4zm3.2-2.9c0.2 0.9 1 1.2 1.7 1.2 0.5 0 1.1-0.2 1.1-0.6 0-0.3-0.2-0.5-0.6-0.7l-1.5-0.6c-1.9-0.7-2-2-2-2.3 0-1.7 1.4-2.6 3.2-2.6 0.9 0 2.2 0.3 2.9 1.8l-1.8 0.8c-0.2-0.7-0.8-0.8-1.2-0.8-0.4 0-0.9 0.3-0.9 0.7 0 0.4 0.4 0.5 0.8 0.7l1.2 0.5c2 0.6 2.1 1.8 2.1 2.4 0 1.7-1.5 2.6-3.3 2.6-1.2 0-2.9-0.4-3.5-2.1zm9.5-5.5h2.3v2h-2.3v3.9c0 0.3 0.2 0.7 0.6 0.7 0.5 0 0.6-0.4 0.6-0.8 0-0.2 0-0.6-0.1-0.7h1.9c0.2 0.3 0.2 0.7 0.2 1 0 1.2-0.8 2.5-2.7 2.5-1.5 0-2.9-0.5-2.9-3v-3.6h-1.2v-1.9h1.4l0.4-2.1h1.8zm6.7 1.8c0.3-1.5 1.6-2 2.3-2 0.3 0 0.3 0 0.6 0.1v2.4c-0.3-0.1-0.8-0.1-1-0.1-0.9 0-1.8 0.5-1.8 1.6v4.5h-2.4v-8.3h2.3zm12.5-1.8v8.3h-2.4v-1.2c-0.6 0.9-1.3 1.4-2.5 1.4-2.5 0-4-1.9-4-4.4 0-2.3 1.4-4.3 3.9-4.3 1.1 0 2.1 0.6 2.6 1.3v-1.1zm-4.4 6.5c1.1 0 2.1-0.7 2.1-2.2 0-1.6-0.9-2.5-2.2-2.5-1.3 0-2 1.1-2 2.3 0 1.4 0.8 2.4 2.1 2.4zm6.5-9.9h2.4v11.7h-2.4zm5.7 2.6c-0.8 0-1.5-0.6-1.5-1.4 0-0.7 0.7-1.3 1.5-1.3 0.9 0 1.5 0.6 1.5 1.3 0 0.8-0.6 1.4-1.5 1.4zm-1.2 0.8h2.4v8.4h-2.4zm13 0v8.4h-2.4v-1.3c-0.6 0.9-1.4 1.4-2.6 1.4-2.5 0-4-1.9-4-4.4 0-2.3 1.4-4.3 4-4.3 1 0 2 0.6 2.6 1.4v-1.2zm-4.5 6.6c1.2 0 2.2-0.8 2.2-2.3 0-1.6-1-2.5-2.3-2.5-1.3 0-2 1.1-2 2.4 0 1.3 0.8 2.4 2.1 2.4z"/>
	<path id="Layer" fill-rule="evenodd" class="s0" d="m74.4 61.7c-1 0-1.8-0.8-1.8-1.8 0-1 0.8-1.8 1.8-1.8 1 0 1.8 0.8 1.8 1.8 0 1-0.8 1.8-1.8 1.8zm1.4-1.8c0-0.9-0.6-1.5-1.4-1.5-0.8 0-1.4 0.6-1.4 1.5 0 0.8 0.6 1.4 1.4 1.4 0.8 0 1.4-0.6 1.4-1.4zm-1 0.2q0.2 0.3 0.3 0.7h-0.4l-0.3-0.7h-0.2v0.7h-0.4v-1.9h0.7c0.4 0 0.6 0.3 0.6 0.7q0 0.3-0.3 0.5zm-0.3-0.3c0.1 0 0.2-0.1 0.2-0.2 0-0.2-0.1-0.3-0.2-0.3h-0.3v0.5z"/>
</svg>
